<svg width="800" height="600" xmlns="http://www.w3.org/2000/svg">

 <g>
  <title>Layer 1</title>
  <rect id="svg_2" height="598.00001" width="800.00002" y="0" x="-1" stroke="#663399" fill="#ff0000"/>
  <g>
   <!--! Font Awesome Pro 6.3.0 by @fontawesome - https://fontawesome.com License - https://fontawesome.com/license (Commercial License) Copyright 2023 Fonticons, Inc. -->
   <path fill="#ffffff" d="m533.33748,53.36252c12.5,-12.5 32.8,-12.5 45.3,0l64,64c12.5,12.5 12.5,32.8 0,45.3c-11.8,11.8 -30.7,12.5 -43.2,1.9l-9.5,9.5l-48.8,48.8c-9.2,9.2 -11.5,22.9 -8.6,35.6c9.4,40.9 -1.9,85.6 -33.8,117.5l-161.5,161.3c-25,25 -65.5,25 -90.5,0l-88,-88c-25,-25 -25,-65.5 0,-90.5l161.4,-161.5c31.9,-31.9 76.6,-43.1 117.5,-33.8c12.6,2.9 26.4,0.5 35.5,-8.6l48.8,-48.8l9.5,-9.5c-10.6,-12.6 -10,-31.4 1.9,-43.2zm-294.1,337.9l65.4,65.4c6.2,6.2 16.4,6.2 22.6,0l97.4,-97.4c6.2,-6.2 6.2,-16.4 0,-22.6l-65.4,-65.4c-6.2,-6.2 -16.4,-6.2 -22.6,0l-97.4,97.4c-6.2,6.2 -6.2,16.4 0,22.6z"/>
  </g>
  <rect id="svg_1" height="1" width="0" y="237" x="1027" stroke="#663399" fill="#0000ff"/>
 </g>
</svg>